<svg width="165px" height="54px" viewBox="0 0 165 54" fill="none" xmlns="http://www.w3.org/2000/svg"
     transform="rotate(0) scale(1, 1)">
    <path d="M48.3641 40.215C47.9101 39.8582 47.3334 39.6959 46.76 39.7636C46.1866 39.8312 45.6635 40.1234 45.3051 40.576C44.2095 41.9675 42.9538 43.2252 41.564 44.323C41.1172 44.6821 40.8302 45.203 40.7652 45.7725C40.7003 46.342 40.8627 46.9142 41.2171 47.3647C41.5716 47.8151 42.0895 48.1076 42.6583 48.1784C43.2271 48.2492 43.8009 48.0928 44.2551 47.743C45.9146 46.4317 47.4157 44.9316 48.728 43.273C48.9055 43.0485 49.0369 42.7913 49.1147 42.5159C49.1925 42.2405 49.2151 41.9525 49.1813 41.6684C49.1475 41.3842 49.0579 41.1096 48.9176 40.8602C48.7774 40.6108 48.5893 40.3915 48.3641 40.215V40.215Z"
          fill="#ffffff"/>
    <path d="M27.727 0C25.0173 0.00166066 22.3233 0.41192 19.736 1.21698C19.1989 1.40135 18.7548 1.78796 18.4983 2.29462C18.2417 2.80127 18.1929 3.38804 18.3623 3.93011C18.5316 4.47219 18.9056 4.92685 19.4049 5.19742C19.9043 5.46799 20.4894 5.53313 21.036 5.379C24.9359 4.16124 29.0945 4.03377 33.0616 5.01044C37.0287 5.98711 40.6529 8.03067 43.5417 10.9197C46.4304 13.8088 48.4736 17.4332 49.4498 21.4004C50.4261 25.3676 50.2982 29.5263 49.08 33.426C48.9945 33.6988 48.9638 33.9858 48.9894 34.2705C49.0151 34.5552 49.0967 34.8321 49.2295 35.0852C49.3623 35.3384 49.5438 35.5628 49.7636 35.7457C49.9833 35.9286 50.237 36.0663 50.51 36.151C50.7205 36.2182 50.9401 36.2519 51.161 36.251C51.6253 36.252 52.0777 36.1038 52.4513 35.8281C52.8249 35.5525 53.1 35.164 53.236 34.72C54.4863 30.7171 54.7778 26.4763 54.087 22.34C53.3961 18.2037 51.7423 14.2878 49.2591 10.9085C46.7759 7.52918 43.5329 4.78112 39.7919 2.8862C36.0508 0.991276 31.9166 0.00261284 27.723 0H27.727Z"
          fill="#ffffff"/>
    <path d="M7.07595 13.262C7.46116 13.5596 7.93418 13.721 8.42095 13.721C8.75094 13.7247 9.07728 13.652 9.37447 13.5085C9.67166 13.365 9.93159 13.1547 10.1339 12.894C11.2092 11.5293 12.4402 10.295 13.8019 9.21602C14.2547 8.85665 14.5461 8.33216 14.6121 7.75792C14.6781 7.18368 14.5133 6.60673 14.154 6.15401C13.7946 5.70128 13.2701 5.40987 12.6959 5.34386C12.1216 5.27784 11.5447 5.44265 11.0919 5.80202C9.4691 7.09772 7.99899 8.57388 6.70995 10.202C6.35497 10.6572 6.19425 11.2342 6.26281 11.8074C6.33136 12.3805 6.62363 12.9034 7.07595 13.262V13.262Z"
          fill="#ffffff"/>
    <path d="M34.413 48.093C31.0623 49.142 27.5118 49.3878 24.0486 48.8107C20.5853 48.2336 17.3063 46.8497 14.4769 44.7709C11.6474 42.6921 9.34676 39.9767 7.7609 36.8442C6.17504 33.7117 5.34845 30.2501 5.34799 26.739C5.34998 24.4724 5.69111 22.2187 6.36002 20.053C6.45235 19.7789 6.48903 19.4892 6.46793 19.2007C6.44682 18.9123 6.36833 18.6309 6.23709 18.3732C6.10585 18.1155 5.92448 17.8866 5.70361 17.6998C5.48275 17.5131 5.22684 17.3724 4.95087 17.2858C4.6749 17.1993 4.38444 17.1687 4.0965 17.1959C3.80856 17.2231 3.52892 17.3075 3.27402 17.4441C3.01912 17.5808 2.79405 17.7669 2.61203 17.9917C2.43001 18.2164 2.29471 18.4753 2.21402 18.753C0.759405 23.4112 0.60705 28.3786 1.7735 33.1172C2.93995 37.8558 5.38072 42.1849 8.83142 45.6356C12.2821 49.0863 16.6112 51.5271 21.3498 52.6935C26.0884 53.86 31.0558 53.7076 35.714 52.253C36.2659 52.0806 36.7268 51.696 36.9951 51.1839C37.2635 50.6717 37.3174 50.0739 37.145 49.522C36.9726 48.9701 36.588 48.5093 36.0759 48.2409C35.5637 47.9725 34.9659 47.9186 34.414 48.091L34.413 48.093Z"
          fill="#ffffff"/>
    <path d="M39.5841 13.6489C39.5841 13.6869 39.571 13.7399 39.565 13.7839C39.549 13.8749 39.5371 13.9629 39.5151 14.0539C39.5017 14.1063 39.485 14.1577 39.465 14.2079C39.434 14.2929 39.409 14.3649 39.371 14.4469C39.34 14.5069 39.302 14.5629 39.271 14.6199C39.2425 14.6751 39.209 14.7277 39.1711 14.7769L39.143 14.8209C39.127 14.8269 39.1271 14.8459 39.1181 14.8589L30.3981 25.7329C30.2193 25.9562 29.9984 26.142 29.7478 26.2799C29.4973 26.4177 29.222 26.5049 28.9378 26.5364C28.6535 26.5678 28.3658 26.543 28.0912 26.4633C27.8165 26.3836 27.5603 26.2506 27.337 26.0719C27.1138 25.8932 26.9279 25.6722 26.7901 25.4217C26.6522 25.1711 26.5651 24.8959 26.5336 24.6116C26.5021 24.3274 26.5269 24.0397 26.6066 23.7651C26.6863 23.4904 26.8193 23.2342 26.9981 23.0109L34.181 14.0549C32.1111 12.9821 29.8125 12.4257 27.4811 12.4329C25.1187 12.4362 22.792 13.0087 20.6979 14.1021C18.6038 15.1955 16.804 16.7774 15.4511 18.7139C15.2502 18.9996 14.9832 19.2325 14.673 19.3929C14.3627 19.5533 14.0183 19.6363 13.669 19.6349C13.2226 19.6345 12.7867 19.4996 12.418 19.2479C12.1825 19.0845 11.9816 18.876 11.8271 18.6344C11.6725 18.3929 11.5674 18.1232 11.5178 17.8408C11.4681 17.5584 11.4749 17.2689 11.5378 16.9892C11.6007 16.7094 11.7183 16.4449 11.884 16.2109C13.3352 14.1371 15.1852 12.3734 17.3259 11.0229C19.4666 9.67235 21.8551 8.7621 24.3517 8.34536C26.8482 7.92861 29.4028 8.01373 31.8661 8.59572C34.3294 9.17771 36.652 10.2449 38.698 11.7349L38.751 11.7889L38.7701 11.8019C38.7935 11.8213 38.8156 11.8424 38.836 11.8649C38.9191 11.9331 38.9958 12.0087 39.065 12.0909C39.093 12.1219 39.1121 12.1509 39.1311 12.1759C39.1941 12.2699 39.2601 12.3489 39.3131 12.4399C39.3321 12.4709 39.3411 12.5089 39.3601 12.5399C39.4041 12.6339 39.442 12.7249 39.479 12.8169L39.5071 12.9329C39.5321 13.0329 39.5511 13.1329 39.5671 13.2219C39.5671 13.2659 39.5671 13.3159 39.5671 13.3509C39.5793 13.4498 39.5849 13.5493 39.5841 13.6489V13.6489ZM41.357 34.0239C40.8821 33.698 40.2983 33.5714 39.731 33.6713C39.1637 33.7711 38.6582 34.0894 38.323 34.5579C36.9673 36.492 35.1658 38.0711 33.0708 39.1618C30.9758 40.2524 28.649 40.8225 26.2871 40.8239C23.9568 40.8307 21.6589 40.2775 19.587 39.2109L26.176 30.9969C26.5323 30.5462 26.6961 29.9729 26.6316 29.402C26.5672 28.831 26.2797 28.3087 25.8319 27.9487C25.3841 27.5888 24.8122 27.4203 24.2408 27.4801C23.6693 27.5399 23.1447 27.823 22.781 28.2679L14.6491 38.4119V38.4369C14.6331 38.4559 14.615 38.4649 14.596 38.4839C14.5502 38.5518 14.5081 38.6223 14.47 38.6949C14.451 38.7299 14.429 38.7669 14.41 38.8109C14.3689 38.8921 14.3331 38.976 14.303 39.0619L14.2531 39.2099C14.2311 39.2949 14.2281 39.3769 14.2091 39.4549C14.2091 39.5149 14.19 39.5779 14.19 39.6339C14.1837 39.7051 14.1837 39.7767 14.19 39.8479C14.1874 39.9173 14.1927 39.9868 14.206 40.0549C14.2123 40.1158 14.2251 40.1758 14.2441 40.2339C14.2562 40.317 14.2753 40.399 14.301 40.4789C14.32 40.5169 14.339 40.5609 14.358 40.6079C14.3912 40.6957 14.4334 40.7798 14.484 40.8589C14.503 40.8969 14.5221 40.9279 14.5411 40.9589C14.5992 41.0464 14.6623 41.1306 14.7301 41.2109C14.7556 41.2334 14.7796 41.2574 14.802 41.2829C14.871 41.3459 14.9281 41.4119 15.0021 41.4689C15.0205 41.4865 15.0406 41.5023 15.0621 41.5159L15.0751 41.5219C18.3268 43.9077 22.2579 45.1881 26.2911 45.1749C29.3523 45.1722 32.368 44.4327 35.0832 43.0188C37.7984 41.605 40.1335 39.5584 41.8911 37.0519C42.2179 36.5783 42.3451 35.9951 42.2452 35.4284C42.1452 34.8617 41.8262 34.3571 41.357 34.0239Z"
          fill="url(#paint0_linear)"/>
    <path d="M69.215 16.192C68.9508 15.9301 68.7412 15.6186 68.5981 15.2753C68.455 14.9321 68.3813 14.5639 68.3813 14.192C68.3813 13.8201 68.455 13.4518 68.5981 13.1085C68.7412 12.7653 68.9508 12.4538 69.215 12.192C69.473 11.9303 69.781 11.7232 70.1206 11.5829C70.4602 11.4425 70.8245 11.3718 71.192 11.3749C71.5664 11.3684 71.9384 11.4374 72.2856 11.5777C72.6328 11.7181 72.9482 11.927 73.213 12.192C73.4762 12.4542 73.6852 12.7659 73.8277 13.1091C73.9703 13.4523 74.0436 13.8203 74.0436 14.192C74.0436 14.5636 73.9703 14.9316 73.8277 15.2748C73.6852 15.618 73.4762 15.9297 73.213 16.192C72.9501 16.4601 72.6353 16.6717 72.2878 16.8139C71.9403 16.9561 71.5674 17.0259 71.192 17.019C70.8236 17.0224 70.4583 16.9509 70.1184 16.8087C69.7786 16.6665 69.4712 16.4567 69.215 16.192ZM68.838 37.0519V18.977H73.588V37.0519H68.838Z"
          fill="#ffffff"/>
    <path d="M77.517 37.0521V33.4871L85.665 23.1291H77.517V18.9761H92.157V22.3761L83.842 32.9011H92.301V37.0521H77.517Z"
          fill="#ffffff"/>
    <path d="M96.586 16.192C96.3227 15.9297 96.1138 15.6181 95.9713 15.2748C95.8287 14.9316 95.7554 14.5637 95.7554 14.192C95.7554 13.8204 95.8287 13.4524 95.9713 13.1092C96.1138 12.766 96.3227 12.4543 96.586 12.192C97.1197 11.6678 97.8379 11.374 98.586 11.374C99.3341 11.374 100.052 11.6678 100.586 12.192C101.116 12.7224 101.414 13.4419 101.414 14.192C101.414 14.9422 101.116 15.6616 100.586 16.192C100.056 16.7224 99.3362 17.0204 98.586 17.0204C97.8359 17.0204 97.1165 16.7224 96.586 16.192ZM96.212 37.052V18.977H100.965V37.052H96.212Z"
          fill="#ffffff"/>
    <path d="M106.133 43.943V18.978H108.928V21.663C109.619 20.7067 110.523 19.9244 111.569 19.378C113.086 18.6006 114.817 18.3452 116.493 18.6515C118.17 18.9577 119.699 19.8085 120.843 21.072C122.282 23.0937 123.056 25.5138 123.056 27.9955C123.056 30.4773 122.282 32.8974 120.843 34.919C120.133 35.7617 119.242 36.4325 118.236 36.881C117.23 37.3296 116.135 37.5444 115.034 37.509C113.852 37.516 112.686 37.2287 111.642 36.673C110.582 36.0923 109.657 35.293 108.929 34.328V43.943H106.133ZM108.928 32.092C109.491 32.967 110.271 33.6818 111.191 34.167C112.146 34.7062 113.222 34.9938 114.319 35.003C115.131 35.0346 115.939 34.8729 116.676 34.5313C117.414 34.1897 118.059 33.6779 118.56 33.038C119.584 31.5587 120.132 29.8025 120.132 28.0035C120.132 26.2046 119.584 24.4484 118.56 22.969C118.054 22.336 117.407 21.8303 116.671 21.4923C115.934 21.1544 115.129 20.9937 114.319 21.023C113.222 21.0348 112.146 21.3234 111.191 21.862C110.275 22.3442 109.497 23.0505 108.928 23.915V32.092Z"
          fill="#ffffff"/>
    <path d="M126.471 28.0339C126.348 25.534 127.148 23.0761 128.719 21.1279C129.428 20.2845 130.318 19.6125 131.324 19.1622C132.329 18.7119 133.424 18.4951 134.525 18.5279C135.706 18.5234 136.87 18.8095 137.914 19.3609C138.976 19.932 139.899 20.7319 140.614 21.7029V18.9809H143.406V37.0529H140.614V34.3839C139.908 35.3256 139.003 36.1005 137.964 36.6539C136.908 37.224 135.725 37.5181 134.525 37.5089C133.425 37.5442 132.331 37.3318 131.325 36.8873C130.318 36.4428 129.424 35.7776 128.709 34.9409C127.136 32.9937 126.339 30.5335 126.471 28.0339V28.0339ZM130.963 22.9889C129.872 24.439 129.317 26.2219 129.391 28.0349C129.314 29.8401 129.867 31.6161 130.956 33.0579C131.464 33.6945 132.115 34.2025 132.857 34.5406C133.598 34.8787 134.408 35.0374 135.222 35.0039C136.322 35.0017 137.402 34.7136 138.356 34.1679C139.272 33.6962 140.05 32.9942 140.613 32.1309V23.9519C140.051 23.0768 139.27 22.3639 138.347 21.8839C137.398 21.33 136.321 21.0342 135.222 21.0259C134.408 20.9946 133.597 21.156 132.857 21.4972C132.117 21.8383 131.468 22.3494 130.963 22.9889V22.9889Z"
          fill="#ffffff"/>
    <path d="M148.838 41.659L150.259 39.628C150.922 40.4351 151.765 41.0754 152.72 41.4974C153.675 41.9194 154.716 42.1114 155.759 42.058C157.227 42.1409 158.669 41.6431 159.773 40.672C160.27 40.1643 160.656 39.5586 160.906 38.8935C161.156 38.2284 161.265 37.5185 161.225 36.809V34.096C160.426 34.9874 159.465 35.719 158.393 36.252C157.278 36.8305 156.04 37.1295 154.784 37.123C150.952 37.123 149.036 35.2054 149.035 31.37V18.978H151.835V30.483C151.775 31.059 151.837 31.6411 152.015 32.192C152.193 32.743 152.484 33.2508 152.869 33.683C153.73 34.3632 154.814 34.6983 155.909 34.623C156.967 34.6172 158.005 34.3419 158.927 33.823C159.824 33.3515 160.608 32.6922 161.227 31.89V18.978H164.015V36.833C164.037 37.9799 163.818 39.1185 163.371 40.175C162.967 41.0952 162.35 41.9063 161.571 42.542C160.782 43.1535 159.89 43.6179 158.937 43.913C156.629 44.5963 154.164 44.5262 151.899 43.713C150.749 43.2446 149.707 42.5455 148.838 41.659V41.659Z"
          fill="#ffffff"/>
    <defs>
        <linearGradient id="paint0_linear" x1="13.5174" y1="39.9825" x2="44.1218" y2="18.9057"
                        gradientUnits="userSpaceOnUse">
            <stop stop-color="#ffffff" data-originalstopcolor="#ffffff"/>
            <stop offset="1" stop-color="#ffffff" data-originalstopcolor="#ffffff"/>
        </linearGradient>
    </defs>
</svg>